{"extensionsUsed" : ["KHR_texture_transform"], "accessors" : [{"bufferView" : 0, "byteOffset" : 0, "componentType" : 5123, "count" : 3366, "type" : "SCALAR", "max" : [2800], "min" : [0]}, {"bufferView" : 1, "byteOffset" : 0, "componentType" : 5126, "count" : 2801, "type" : "VEC3", "max" : [20576.740234375, 69425.4609375, -12304.8466796875], "min" : [-62696.9296875, 42662.59375, -79378.46875], "name" : "POSITION"}, {"bufferView" : 1, "byteOffset" : 12, "componentType" : 5126, "count" : 2801, "type" : "VEC3", "max" : [0.9997300505638123, 1.0000044107437134, 0.9991231560707092], "min" : [-0.9997300505638123, -1.0000044107437134, -0.9991231560707092], "name" : "NORMAL"}, {"bufferView" : 0, "byteOffset" : 6732, "componentType" : 5123, "count" : 3357, "type" : "SCALAR", "max" : [2794], "min" : [0]}, {"bufferView" : 2, "byteOffset" : 0, "componentType" : 5126, "count" : 2795, "type" : "VEC3", "max" : [101147.203125, 69125.4609375, 42663.4609375], "min" : [17873.5390625, 42362.59375, -24410.171875], "name" : "POSITION"}, {"bufferView" : 2, "byteOffset" : 12, "componentType" : 5126, "count" : 2795, "type" : "VEC3", "max" : [0.9997300505638123, 1.0000044107437134, 0.9991231560707092], "min" : [-0.9997300505638123, -1.0000044107437134, -0.9991231560707092], "name" : "NORMAL"}, {"bufferView" : 0, "byteOffset" : 13448, "componentType" : 5123, "count" : 12849, "type" : "SCALAR", "max" : [10678], "min" : [0]}, {"bufferView" : 3, "byteOffset" : 0, "componentType" : 5126, "count" : 10679, "type" : "VEC3", "max" : [320762.59375, 69620.1953125, 385767.28125], "min" : [-320762.59375, 0, -385767.28125], "name" : "POSITION"}, {"bufferView" : 3, "byteOffset" : 12, "componentType" : 5126, "count" : 10679, "type" : "VEC3", "max" : [0.9998199343681335, 1.0000044107437134, 0.9998199343681335], "min" : [-0.9998199343681335, -1.0000044107437134, -0.9998199343681335], "name" : "NORMAL"}], "asset" : {"generator" : "Aspose.3D 22.7", "version" : "2.0"}, "buffers" : [{"uri" : "data:application/octet-stream;base64,", "byteLength" : 508892}], "bufferViews" : [{"buffer" : 0, "byteOffset" : 0, "byteLength" : 39148, "target" : 34963}, {"buffer" : 0, "byteOffset" : 39152, "byteLength" : 80784, "byteStride" : 24, "target" : 34962}, {"buffer" : 0, "byteOffset" : 119940, "byteLength" : 80568, "byteStride" : 24, "target" : 34962}, {"buffer" : 0, "byteOffset" : 200512, "byteLength" : 308376, "byteStride" : 24, "target" : 34962}], "materials" : [{"name" : "Yolanda", "pbrMetallicRoughness" : {"baseColorFactor" : [0.8670237934377415, 0.8670237934377415, 0.8670237934377415, 1], "metallicFactor" : 0, "roughnessFactor" : 0.2}, "emissiveFactor" : [0, 0, 0], "alphaMode" : "OPAQUE", "doubleSided" : false}, {"name" : "Safari", "pbrMetallicRoughness" : {"baseColorFactor" : [0.8670237934377415, 0.8670237934377415, 0.8670237934377415, 1], "metallicFactor" : 0, "roughnessFactor" : 0.2}, "emissiveFactor" : [0, 0, 0], "alphaMode" : "OPAQUE", "doubleSided" : false}, {"name" : "Magnet", "pbrMetallicRoughness" : {"baseColorFactor" : [0.8670237934377415, 0.8670237934377415, 0.8670237934377415, 1], "metallicFactor" : 0, "roughnessFactor" : 0.2}, "emissiveFactor" : [0, 0, 0], "alphaMode" : "OPAQUE", "doubleSided" : false}], "meshes" : [{"primitives" : [{"attributes" : {"POSITION" : 1, "NORMAL" : 2}, "indices" : 0, "material" : 0, "mode" : 4}]}, {"primitives" : [{"attributes" : {"POSITION" : 4, "NORMAL" : 5}, "indices" : 3, "material" : 1, "mode" : 4}]}, {"primitives" : [{"attributes" : {"POSITION" : 7, "NORMAL" : 8}, "indices" : 6, "material" : 2, "mode" : 4}]}], "nodes" : [{"matrix" : [1, 0, 0, 0, 0, 2.220446049250313E-16, 1, 0, 0, -1, 2.220446049250313E-16, 0, 0, 0, 0, 1], "mesh" : 0, "name" : "Component_002"}, {"matrix" : [1, 0, 0, 0, 0, 2.220446049250313E-16, 1, 0, 0, -1, 2.220446049250313E-16, 0, 0, 0, 0, 1], "mesh" : 1, "name" : "Component_001"}, {"matrix" : [1, 0, 0, 0, 0, 2.220446049250313E-16, 1, 0, 0, -1, 2.220446049250313E-16, 0, 0, 0, 0, 1], "mesh" : 2, "name" : "skp4E5D_001"}, {"children" : [0, 1, 2], "matrix" : [0.001, 0, 0, 0, 0, 2.220446049250313E-19, -0.001, 0, 0, 0.001, 2.220446049250313E-19, 0, 0, 0, 0, 1], "name" : "3d-model"}], "scene" : 0, "scenes" : [{"nodes" : [3]}]}